<mxfile host="app.diagrams.net" modified="2022-03-08T01:35:18.837Z" agent="5.0 (Windows NT 10.0; Win64; x64) AppleWebKit/537.36 (KHTML, like Gecko) Chrome/99.0.4844.51 Safari/537.36" etag="kCHiqpQeYt7Te284fCN2" version="16.6.6" type="github">
  <diagram id="C5RBs43oDa-KdzZeNtuy" name="Page-1">
    <mxGraphModel dx="1108" dy="2820" grid="1" gridSize="10" guides="1" tooltips="1" connect="1" arrows="1" fold="1" page="1" pageScale="1" pageWidth="827" pageHeight="1169" math="0" shadow="0">
      <root>
        <mxCell id="WIyWlLk6GJQsqaUBKTNV-0" />
        <mxCell id="WIyWlLk6GJQsqaUBKTNV-1" parent="WIyWlLk6GJQsqaUBKTNV-0" />
        <mxCell id="WIyWlLk6GJQsqaUBKTNV-4" value="확인" style="rounded=0;html=1;jettySize=auto;orthogonalLoop=1;fontSize=11;endArrow=block;endFill=0;endSize=8;strokeWidth=1;shadow=0;labelBackgroundColor=none;edgeStyle=orthogonalEdgeStyle;" parent="WIyWlLk6GJQsqaUBKTNV-1" edge="1">
          <mxGeometry x="-0.05" y="40" relative="1" as="geometry">
            <mxPoint as="offset" />
            <mxPoint x="400" y="-379" as="sourcePoint" />
            <mxPoint x="400" y="-339" as="targetPoint" />
          </mxGeometry>
        </mxCell>
        <mxCell id="WIyWlLk6GJQsqaUBKTNV-5" value="취소" style="edgeStyle=orthogonalEdgeStyle;rounded=0;html=1;jettySize=auto;orthogonalLoop=1;fontSize=11;endArrow=block;endFill=0;endSize=8;strokeWidth=1;shadow=0;labelBackgroundColor=none;" parent="WIyWlLk6GJQsqaUBKTNV-1" source="WIyWlLk6GJQsqaUBKTNV-6" target="Jx9qp8K9fujIyzVr_CGY-1" edge="1">
          <mxGeometry y="-30" relative="1" as="geometry">
            <mxPoint as="offset" />
            <mxPoint x="450" y="-540" as="targetPoint" />
            <Array as="points">
              <mxPoint x="490" y="-420" />
              <mxPoint x="490" y="-530" />
            </Array>
          </mxGeometry>
        </mxCell>
        <mxCell id="WIyWlLk6GJQsqaUBKTNV-6" value="인원수&lt;br&gt;입력" style="rhombus;whiteSpace=wrap;html=1;shadow=0;fontFamily=Helvetica;fontSize=12;align=center;strokeWidth=1;spacing=6;spacingTop=-4;" parent="WIyWlLk6GJQsqaUBKTNV-1" vertex="1">
          <mxGeometry x="350" y="-460" width="100" height="80" as="geometry" />
        </mxCell>
        <mxCell id="WIyWlLk6GJQsqaUBKTNV-8" value="Yes" style="rounded=0;html=1;jettySize=auto;orthogonalLoop=1;fontSize=11;endArrow=block;endFill=0;endSize=8;strokeWidth=1;shadow=0;labelBackgroundColor=none;edgeStyle=orthogonalEdgeStyle;" parent="WIyWlLk6GJQsqaUBKTNV-1" source="WIyWlLk6GJQsqaUBKTNV-10" edge="1">
          <mxGeometry x="0.3333" y="20" relative="1" as="geometry">
            <mxPoint as="offset" />
            <mxPoint x="400" y="-220" as="targetPoint" />
          </mxGeometry>
        </mxCell>
        <mxCell id="WIyWlLk6GJQsqaUBKTNV-9" value="No" style="edgeStyle=orthogonalEdgeStyle;rounded=0;html=1;jettySize=auto;orthogonalLoop=1;fontSize=11;endArrow=block;endFill=0;endSize=8;strokeWidth=1;shadow=0;labelBackgroundColor=none;" parent="WIyWlLk6GJQsqaUBKTNV-1" source="WIyWlLk6GJQsqaUBKTNV-10" target="WIyWlLk6GJQsqaUBKTNV-6" edge="1">
          <mxGeometry y="10" relative="1" as="geometry">
            <mxPoint as="offset" />
            <mxPoint x="260" y="-430" as="targetPoint" />
            <Array as="points">
              <mxPoint x="290" y="-300" />
              <mxPoint x="290" y="-420" />
            </Array>
          </mxGeometry>
        </mxCell>
        <mxCell id="WIyWlLk6GJQsqaUBKTNV-10" value="인원수&lt;br&gt;숫자&lt;br&gt;확인" style="rhombus;whiteSpace=wrap;html=1;shadow=0;fontFamily=Helvetica;fontSize=12;align=center;strokeWidth=1;spacing=6;spacingTop=-4;" parent="WIyWlLk6GJQsqaUBKTNV-1" vertex="1">
          <mxGeometry x="350" y="-340" width="100" height="80" as="geometry" />
        </mxCell>
        <mxCell id="Jx9qp8K9fujIyzVr_CGY-1" value="시작" style="ellipse;shape=doubleEllipse;whiteSpace=wrap;html=1;aspect=fixed;" parent="WIyWlLk6GJQsqaUBKTNV-1" vertex="1">
          <mxGeometry x="360" y="-570" width="80" height="80" as="geometry" />
        </mxCell>
        <mxCell id="Jx9qp8K9fujIyzVr_CGY-2" value="" style="endArrow=classic;html=1;rounded=0;" parent="WIyWlLk6GJQsqaUBKTNV-1" edge="1">
          <mxGeometry width="50" height="50" relative="1" as="geometry">
            <mxPoint x="400" y="-490" as="sourcePoint" />
            <mxPoint x="399.5" y="-460" as="targetPoint" />
            <Array as="points">
              <mxPoint x="399.5" y="-470" />
            </Array>
          </mxGeometry>
        </mxCell>
        <mxCell id="Jx9qp8K9fujIyzVr_CGY-6" value="대기" style="shape=ext;double=1;whiteSpace=wrap;html=1;aspect=fixed;" parent="WIyWlLk6GJQsqaUBKTNV-1" vertex="1">
          <mxGeometry x="360" y="-220" width="80" height="80" as="geometry" />
        </mxCell>
        <mxCell id="Jx9qp8K9fujIyzVr_CGY-57" style="edgeStyle=orthogonalEdgeStyle;rounded=0;jumpSize=7;orthogonalLoop=1;jettySize=auto;html=1;" parent="WIyWlLk6GJQsqaUBKTNV-1" edge="1">
          <mxGeometry relative="1" as="geometry">
            <mxPoint x="349" y="285" as="targetPoint" />
            <mxPoint x="349.40999999999997" y="229" as="sourcePoint" />
            <Array as="points">
              <mxPoint x="349" y="245" />
              <mxPoint x="349" y="245" />
            </Array>
          </mxGeometry>
        </mxCell>
        <mxCell id="Jx9qp8K9fujIyzVr_CGY-64" value="" style="edgeStyle=orthogonalEdgeStyle;rounded=0;jumpSize=7;orthogonalLoop=1;jettySize=auto;html=1;" parent="WIyWlLk6GJQsqaUBKTNV-1" source="Jx9qp8K9fujIyzVr_CGY-12" target="Jx9qp8K9fujIyzVr_CGY-58" edge="1">
          <mxGeometry relative="1" as="geometry" />
        </mxCell>
        <mxCell id="Jx9qp8K9fujIyzVr_CGY-12" value="제시어 입력" style="whiteSpace=wrap;html=1;" parent="WIyWlLk6GJQsqaUBKTNV-1" vertex="1">
          <mxGeometry x="306" y="190" width="88" height="39" as="geometry" />
        </mxCell>
        <mxCell id="Jx9qp8K9fujIyzVr_CGY-31" value="yes" style="edgeStyle=orthogonalEdgeStyle;rounded=0;orthogonalLoop=1;jettySize=auto;html=1;" parent="WIyWlLk6GJQsqaUBKTNV-1" edge="1">
          <mxGeometry relative="1" as="geometry">
            <mxPoint x="349.40999999999974" y="129" as="sourcePoint" />
            <mxPoint x="349.40999999999974" y="189" as="targetPoint" />
          </mxGeometry>
        </mxCell>
        <mxCell id="Jx9qp8K9fujIyzVr_CGY-48" value="대기" style="shape=ext;double=1;whiteSpace=wrap;html=1;aspect=fixed;" parent="WIyWlLk6GJQsqaUBKTNV-1" vertex="1">
          <mxGeometry x="310" y="-70" width="80" height="80" as="geometry" />
        </mxCell>
        <mxCell id="Jx9qp8K9fujIyzVr_CGY-52" value="" style="edgeStyle=orthogonalEdgeStyle;rounded=0;orthogonalLoop=1;jettySize=auto;html=1;jumpSize=7;" parent="WIyWlLk6GJQsqaUBKTNV-1" edge="1">
          <mxGeometry x="1" y="33" relative="1" as="geometry">
            <mxPoint x="350.35" y="10" as="sourcePoint" />
            <mxPoint x="349.40882352941173" y="48" as="targetPoint" />
            <Array as="points">
              <mxPoint x="349.35" y="40" />
            </Array>
            <mxPoint y="4" as="offset" />
          </mxGeometry>
        </mxCell>
        <mxCell id="Jx9qp8K9fujIyzVr_CGY-56" value="빈칸인가?" style="rhombus;whiteSpace=wrap;html=1;" parent="WIyWlLk6GJQsqaUBKTNV-1" vertex="1">
          <mxGeometry x="290" y="49" width="120" height="80" as="geometry" />
        </mxCell>
        <mxCell id="Jx9qp8K9fujIyzVr_CGY-63" value="no" style="edgeStyle=orthogonalEdgeStyle;rounded=0;jumpSize=7;orthogonalLoop=1;jettySize=auto;html=1;" parent="WIyWlLk6GJQsqaUBKTNV-1" source="Jx9qp8K9fujIyzVr_CGY-58" target="Jx9qp8K9fujIyzVr_CGY-62" edge="1">
          <mxGeometry relative="1" as="geometry" />
        </mxCell>
        <mxCell id="Jx9qp8K9fujIyzVr_CGY-79" value="yes" style="edgeStyle=orthogonalEdgeStyle;rounded=0;jumpSize=7;orthogonalLoop=1;jettySize=auto;html=1;" parent="WIyWlLk6GJQsqaUBKTNV-1" source="Jx9qp8K9fujIyzVr_CGY-58" target="Jx9qp8K9fujIyzVr_CGY-78" edge="1">
          <mxGeometry relative="1" as="geometry" />
        </mxCell>
        <mxCell id="Jx9qp8K9fujIyzVr_CGY-58" value="세글자가 맞는가" style="rhombus;whiteSpace=wrap;html=1;" parent="WIyWlLk6GJQsqaUBKTNV-1" vertex="1">
          <mxGeometry x="302" y="285" width="94" height="90" as="geometry" />
        </mxCell>
        <mxCell id="Jx9qp8K9fujIyzVr_CGY-59" value="no" style="edgeStyle=orthogonalEdgeStyle;rounded=0;orthogonalLoop=1;jettySize=auto;html=1;exitX=1;exitY=0.5;exitDx=0;exitDy=0;entryX=1;entryY=0.5;entryDx=0;entryDy=0;" parent="WIyWlLk6GJQsqaUBKTNV-1" source="Jx9qp8K9fujIyzVr_CGY-56" target="Jx9qp8K9fujIyzVr_CGY-82" edge="1">
          <mxGeometry relative="1" as="geometry">
            <mxPoint x="529.9999999999999" y="85" as="sourcePoint" />
            <mxPoint x="522" y="701" as="targetPoint" />
            <Array as="points">
              <mxPoint x="593" y="89" />
              <mxPoint x="593" y="705" />
            </Array>
          </mxGeometry>
        </mxCell>
        <mxCell id="Jx9qp8K9fujIyzVr_CGY-68" value="yes" style="edgeStyle=orthogonalEdgeStyle;rounded=0;jumpSize=7;orthogonalLoop=1;jettySize=auto;html=1;" parent="WIyWlLk6GJQsqaUBKTNV-1" target="Jx9qp8K9fujIyzVr_CGY-67" edge="1">
          <mxGeometry relative="1" as="geometry">
            <mxPoint x="349" y="520" as="sourcePoint" />
          </mxGeometry>
        </mxCell>
        <mxCell id="Jx9qp8K9fujIyzVr_CGY-62" value="세글자 입력 알림" style="whiteSpace=wrap;html=1;" parent="WIyWlLk6GJQsqaUBKTNV-1" vertex="1">
          <mxGeometry x="142" y="300" width="93" height="60" as="geometry" />
        </mxCell>
        <mxCell id="Jx9qp8K9fujIyzVr_CGY-65" value="" style="edgeStyle=orthogonalEdgeStyle;rounded=0;orthogonalLoop=1;jettySize=auto;html=1;exitX=0.5;exitY=0;exitDx=0;exitDy=0;" parent="WIyWlLk6GJQsqaUBKTNV-1" source="Jx9qp8K9fujIyzVr_CGY-62" target="Jx9qp8K9fujIyzVr_CGY-12" edge="1">
          <mxGeometry relative="1" as="geometry">
            <mxPoint x="181" y="295" as="sourcePoint" />
            <mxPoint x="295" y="215" as="targetPoint" />
            <Array as="points">
              <mxPoint x="189" y="209" />
            </Array>
          </mxGeometry>
        </mxCell>
        <mxCell id="Jx9qp8K9fujIyzVr_CGY-83" value="" style="edgeStyle=orthogonalEdgeStyle;rounded=0;jumpSize=7;orthogonalLoop=1;jettySize=auto;html=1;" parent="WIyWlLk6GJQsqaUBKTNV-1" source="Jx9qp8K9fujIyzVr_CGY-67" target="Jx9qp8K9fujIyzVr_CGY-82" edge="1">
          <mxGeometry relative="1" as="geometry" />
        </mxCell>
        <mxCell id="Jx9qp8K9fujIyzVr_CGY-67" value="다음 사람으로 &lt;br&gt;넘어가기" style="whiteSpace=wrap;html=1;" parent="WIyWlLk6GJQsqaUBKTNV-1" vertex="1">
          <mxGeometry x="289" y="565" width="120" height="60" as="geometry" />
        </mxCell>
        <mxCell id="Jx9qp8K9fujIyzVr_CGY-81" value="" style="edgeStyle=orthogonalEdgeStyle;rounded=0;jumpSize=7;orthogonalLoop=1;jettySize=auto;html=1;" parent="WIyWlLk6GJQsqaUBKTNV-1" source="Jx9qp8K9fujIyzVr_CGY-78" target="Jx9qp8K9fujIyzVr_CGY-67" edge="1">
          <mxGeometry relative="1" as="geometry" />
        </mxCell>
        <mxCell id="Jx9qp8K9fujIyzVr_CGY-78" value="첫 제시어가 됨" style="whiteSpace=wrap;html=1;" parent="WIyWlLk6GJQsqaUBKTNV-1" vertex="1">
          <mxGeometry x="289" y="437.5" width="120" height="60" as="geometry" />
        </mxCell>
        <mxCell id="Jx9qp8K9fujIyzVr_CGY-85" value="" style="edgeStyle=orthogonalEdgeStyle;rounded=0;jumpSize=7;orthogonalLoop=1;jettySize=auto;html=1;" parent="WIyWlLk6GJQsqaUBKTNV-1" source="Jx9qp8K9fujIyzVr_CGY-82" target="Jx9qp8K9fujIyzVr_CGY-84" edge="1">
          <mxGeometry relative="1" as="geometry" />
        </mxCell>
        <mxCell id="Jx9qp8K9fujIyzVr_CGY-82" value="제시어 입력" style="whiteSpace=wrap;html=1;" parent="WIyWlLk6GJQsqaUBKTNV-1" vertex="1">
          <mxGeometry x="289" y="675" width="120" height="60" as="geometry" />
        </mxCell>
        <mxCell id="Jx9qp8K9fujIyzVr_CGY-91" value="" style="edgeStyle=orthogonalEdgeStyle;rounded=0;jumpSize=7;orthogonalLoop=1;jettySize=auto;html=1;" parent="WIyWlLk6GJQsqaUBKTNV-1" source="Jx9qp8K9fujIyzVr_CGY-84" target="Jx9qp8K9fujIyzVr_CGY-90" edge="1">
          <mxGeometry relative="1" as="geometry" />
        </mxCell>
        <mxCell id="Jx9qp8K9fujIyzVr_CGY-84" value="세글자&lt;br&gt;확인" style="rhombus;whiteSpace=wrap;html=1;" parent="WIyWlLk6GJQsqaUBKTNV-1" vertex="1">
          <mxGeometry x="309" y="805" width="80" height="80" as="geometry" />
        </mxCell>
        <mxCell id="Jx9qp8K9fujIyzVr_CGY-87" value="" style="edgeStyle=orthogonalEdgeStyle;rounded=0;jumpSize=7;orthogonalLoop=1;jettySize=auto;html=1;exitX=0;exitY=0.5;exitDx=0;exitDy=0;entryX=1;entryY=0.5;entryDx=0;entryDy=0;" parent="WIyWlLk6GJQsqaUBKTNV-1" source="Jx9qp8K9fujIyzVr_CGY-84" target="Jx9qp8K9fujIyzVr_CGY-86" edge="1">
          <mxGeometry relative="1" as="geometry">
            <mxPoint x="292" y="855" as="targetPoint" />
          </mxGeometry>
        </mxCell>
        <mxCell id="Jx9qp8K9fujIyzVr_CGY-89" value="" style="edgeStyle=orthogonalEdgeStyle;rounded=0;jumpSize=7;orthogonalLoop=1;jettySize=auto;html=1;entryX=0;entryY=0.5;entryDx=0;entryDy=0;" parent="WIyWlLk6GJQsqaUBKTNV-1" source="Jx9qp8K9fujIyzVr_CGY-86" target="Jx9qp8K9fujIyzVr_CGY-82" edge="1">
          <mxGeometry relative="1" as="geometry">
            <mxPoint x="191" y="695" as="targetPoint" />
            <Array as="points">
              <mxPoint x="191" y="705" />
            </Array>
          </mxGeometry>
        </mxCell>
        <mxCell id="Jx9qp8K9fujIyzVr_CGY-86" value="세글자 입력 알림" style="whiteSpace=wrap;html=1;" parent="WIyWlLk6GJQsqaUBKTNV-1" vertex="1">
          <mxGeometry x="144" y="816" width="93" height="60" as="geometry" />
        </mxCell>
        <mxCell id="Jx9qp8K9fujIyzVr_CGY-94" value="" style="edgeStyle=orthogonalEdgeStyle;rounded=0;jumpSize=7;orthogonalLoop=1;jettySize=auto;html=1;" parent="WIyWlLk6GJQsqaUBKTNV-1" source="Jx9qp8K9fujIyzVr_CGY-90" target="Jx9qp8K9fujIyzVr_CGY-93" edge="1">
          <mxGeometry relative="1" as="geometry" />
        </mxCell>
        <mxCell id="Jx9qp8K9fujIyzVr_CGY-97" value="" style="edgeStyle=orthogonalEdgeStyle;rounded=0;jumpSize=7;orthogonalLoop=1;jettySize=auto;html=1;" parent="WIyWlLk6GJQsqaUBKTNV-1" source="Jx9qp8K9fujIyzVr_CGY-90" target="Jx9qp8K9fujIyzVr_CGY-96" edge="1">
          <mxGeometry relative="1" as="geometry" />
        </mxCell>
        <mxCell id="Jx9qp8K9fujIyzVr_CGY-90" value="정답확인" style="rhombus;whiteSpace=wrap;html=1;" parent="WIyWlLk6GJQsqaUBKTNV-1" vertex="1">
          <mxGeometry x="309" y="965" width="80" height="80" as="geometry" />
        </mxCell>
        <mxCell id="Jx9qp8K9fujIyzVr_CGY-92" style="edgeStyle=orthogonalEdgeStyle;rounded=0;jumpSize=7;orthogonalLoop=1;jettySize=auto;html=1;exitX=1;exitY=0.5;exitDx=0;exitDy=0;entryX=0;entryY=0.5;entryDx=0;entryDy=0;" parent="WIyWlLk6GJQsqaUBKTNV-1" source="Jx9qp8K9fujIyzVr_CGY-93" edge="1">
          <mxGeometry relative="1" as="geometry">
            <mxPoint x="617" y="1005" as="targetPoint" />
          </mxGeometry>
        </mxCell>
        <mxCell id="Jx9qp8K9fujIyzVr_CGY-93" value="틀렸다고 알림 표시" style="whiteSpace=wrap;html=1;" parent="WIyWlLk6GJQsqaUBKTNV-1" vertex="1">
          <mxGeometry x="447" y="975" width="120" height="60" as="geometry" />
        </mxCell>
        <mxCell id="Jx9qp8K9fujIyzVr_CGY-95" value="끝" style="ellipse;shape=doubleEllipse;whiteSpace=wrap;html=1;aspect=fixed;" parent="WIyWlLk6GJQsqaUBKTNV-1" vertex="1">
          <mxGeometry x="618" y="965" width="80" height="80" as="geometry" />
        </mxCell>
        <mxCell id="Jx9qp8K9fujIyzVr_CGY-96" value="대기" style="shape=ext;double=1;whiteSpace=wrap;html=1;aspect=fixed;" parent="WIyWlLk6GJQsqaUBKTNV-1" vertex="1">
          <mxGeometry x="309" y="1185" width="80" height="80" as="geometry" />
        </mxCell>
        <mxCell id="Jx9qp8K9fujIyzVr_CGY-100" value="다음 사람으로 &lt;br&gt;넘어가기" style="whiteSpace=wrap;html=1;" parent="WIyWlLk6GJQsqaUBKTNV-1" vertex="1">
          <mxGeometry x="289" y="1079" width="120" height="60" as="geometry" />
        </mxCell>
        <mxCell id="d3xCL4Mi3Z7fb9esIkNW-3" value="" style="edgeStyle=orthogonalEdgeStyle;rounded=0;orthogonalLoop=1;jettySize=auto;html=1;" edge="1" parent="WIyWlLk6GJQsqaUBKTNV-1" source="d3xCL4Mi3Z7fb9esIkNW-1" target="d3xCL4Mi3Z7fb9esIkNW-2">
          <mxGeometry relative="1" as="geometry" />
        </mxCell>
        <mxCell id="d3xCL4Mi3Z7fb9esIkNW-1" value="시작" style="ellipse;shape=doubleEllipse;whiteSpace=wrap;html=1;aspect=fixed;" vertex="1" parent="WIyWlLk6GJQsqaUBKTNV-1">
          <mxGeometry x="60" y="-1410" width="80" height="80" as="geometry" />
        </mxCell>
        <mxCell id="d3xCL4Mi3Z7fb9esIkNW-7" style="edgeStyle=orthogonalEdgeStyle;rounded=0;orthogonalLoop=1;jettySize=auto;html=1;exitX=0.5;exitY=1;exitDx=0;exitDy=0;entryX=0.5;entryY=0;entryDx=0;entryDy=0;" edge="1" parent="WIyWlLk6GJQsqaUBKTNV-1" source="d3xCL4Mi3Z7fb9esIkNW-2" target="d3xCL4Mi3Z7fb9esIkNW-4">
          <mxGeometry relative="1" as="geometry" />
        </mxCell>
        <mxCell id="d3xCL4Mi3Z7fb9esIkNW-2" value="숫자를 분해하여 자리마다 하나하나&lt;br&gt;변수1를 지정한다" style="whiteSpace=wrap;html=1;" vertex="1" parent="WIyWlLk6GJQsqaUBKTNV-1">
          <mxGeometry x="40" y="-1310" width="120" height="50" as="geometry" />
        </mxCell>
        <mxCell id="d3xCL4Mi3Z7fb9esIkNW-4" value="대기" style="shape=ext;double=1;whiteSpace=wrap;html=1;aspect=fixed;" vertex="1" parent="WIyWlLk6GJQsqaUBKTNV-1">
          <mxGeometry x="60" y="-1220" width="80" height="80" as="geometry" />
        </mxCell>
        <mxCell id="d3xCL4Mi3Z7fb9esIkNW-10" value="" style="edgeStyle=orthogonalEdgeStyle;rounded=0;orthogonalLoop=1;jettySize=auto;html=1;startArrow=none;" edge="1" parent="WIyWlLk6GJQsqaUBKTNV-1" source="d3xCL4Mi3Z7fb9esIkNW-19" target="d3xCL4Mi3Z7fb9esIkNW-9">
          <mxGeometry relative="1" as="geometry" />
        </mxCell>
        <mxCell id="d3xCL4Mi3Z7fb9esIkNW-8" value="상대방이 숫자 &lt;br&gt;4개를 입력한다" style="whiteSpace=wrap;html=1;" vertex="1" parent="WIyWlLk6GJQsqaUBKTNV-1">
          <mxGeometry x="182" y="-1400" width="120" height="60" as="geometry" />
        </mxCell>
        <mxCell id="d3xCL4Mi3Z7fb9esIkNW-12" style="edgeStyle=orthogonalEdgeStyle;rounded=0;orthogonalLoop=1;jettySize=auto;html=1;exitX=0.5;exitY=1;exitDx=0;exitDy=0;entryX=0.5;entryY=0;entryDx=0;entryDy=0;" edge="1" parent="WIyWlLk6GJQsqaUBKTNV-1" source="d3xCL4Mi3Z7fb9esIkNW-9" target="d3xCL4Mi3Z7fb9esIkNW-11">
          <mxGeometry relative="1" as="geometry" />
        </mxCell>
        <mxCell id="d3xCL4Mi3Z7fb9esIkNW-9" value="상대방이 부른 숫자 자리하나하나 변수2를 지정한다" style="whiteSpace=wrap;html=1;" vertex="1" parent="WIyWlLk6GJQsqaUBKTNV-1">
          <mxGeometry x="182" y="-1230" width="120" height="60" as="geometry" />
        </mxCell>
        <mxCell id="d3xCL4Mi3Z7fb9esIkNW-11" value="대기" style="shape=ext;double=1;whiteSpace=wrap;html=1;aspect=fixed;" vertex="1" parent="WIyWlLk6GJQsqaUBKTNV-1">
          <mxGeometry x="202" y="-1140" width="80" height="80" as="geometry" />
        </mxCell>
        <mxCell id="d3xCL4Mi3Z7fb9esIkNW-15" value="" style="edgeStyle=orthogonalEdgeStyle;rounded=0;orthogonalLoop=1;jettySize=auto;html=1;" edge="1" parent="WIyWlLk6GJQsqaUBKTNV-1" source="d3xCL4Mi3Z7fb9esIkNW-13" target="d3xCL4Mi3Z7fb9esIkNW-14">
          <mxGeometry relative="1" as="geometry" />
        </mxCell>
        <mxCell id="d3xCL4Mi3Z7fb9esIkNW-13" value="변수2와 변수1(사실은 각4개씩이겠지)을 하나하나 비교한다" style="whiteSpace=wrap;html=1;" vertex="1" parent="WIyWlLk6GJQsqaUBKTNV-1">
          <mxGeometry x="390" y="-1400" width="120" height="60" as="geometry" />
        </mxCell>
        <mxCell id="d3xCL4Mi3Z7fb9esIkNW-18" value="" style="edgeStyle=orthogonalEdgeStyle;rounded=0;orthogonalLoop=1;jettySize=auto;html=1;" edge="1" parent="WIyWlLk6GJQsqaUBKTNV-1" source="d3xCL4Mi3Z7fb9esIkNW-14">
          <mxGeometry relative="1" as="geometry">
            <mxPoint x="450" y="-1150" as="targetPoint" />
          </mxGeometry>
        </mxCell>
        <mxCell id="d3xCL4Mi3Z7fb9esIkNW-23" style="edgeStyle=orthogonalEdgeStyle;rounded=0;orthogonalLoop=1;jettySize=auto;html=1;exitX=1;exitY=0.5;exitDx=0;exitDy=0;entryX=0;entryY=0.5;entryDx=0;entryDy=0;" edge="1" parent="WIyWlLk6GJQsqaUBKTNV-1" source="d3xCL4Mi3Z7fb9esIkNW-14" target="d3xCL4Mi3Z7fb9esIkNW-22">
          <mxGeometry relative="1" as="geometry" />
        </mxCell>
        <mxCell id="d3xCL4Mi3Z7fb9esIkNW-14" value="if 중첩문으로 똑같을 시 인풋에 스트라이크를 출력하고 같지 않을 경우 다른 변수들과 함께 비교하여 같은 숫자가 있을 경우 볼로 출력한다&lt;br&gt;" style="whiteSpace=wrap;html=1;" vertex="1" parent="WIyWlLk6GJQsqaUBKTNV-1">
          <mxGeometry x="390" y="-1310" width="120" height="125" as="geometry" />
        </mxCell>
        <mxCell id="d3xCL4Mi3Z7fb9esIkNW-19" value="기회를 차감한다" style="whiteSpace=wrap;html=1;" vertex="1" parent="WIyWlLk6GJQsqaUBKTNV-1">
          <mxGeometry x="182" y="-1320" width="120" height="60" as="geometry" />
        </mxCell>
        <mxCell id="d3xCL4Mi3Z7fb9esIkNW-20" value="" style="edgeStyle=orthogonalEdgeStyle;rounded=0;orthogonalLoop=1;jettySize=auto;html=1;endArrow=none;" edge="1" parent="WIyWlLk6GJQsqaUBKTNV-1" source="d3xCL4Mi3Z7fb9esIkNW-8" target="d3xCL4Mi3Z7fb9esIkNW-19">
          <mxGeometry relative="1" as="geometry">
            <mxPoint x="242" y="-1340" as="sourcePoint" />
            <mxPoint x="242" y="-1160" as="targetPoint" />
          </mxGeometry>
        </mxCell>
        <mxCell id="d3xCL4Mi3Z7fb9esIkNW-22" value="3스트라이크일 경우 게임 오버" style="whiteSpace=wrap;html=1;" vertex="1" parent="WIyWlLk6GJQsqaUBKTNV-1">
          <mxGeometry x="550" y="-1277" width="120" height="60" as="geometry" />
        </mxCell>
        <mxCell id="d3xCL4Mi3Z7fb9esIkNW-26" value="" style="edgeStyle=orthogonalEdgeStyle;rounded=0;orthogonalLoop=1;jettySize=auto;html=1;" edge="1" parent="WIyWlLk6GJQsqaUBKTNV-1" source="d3xCL4Mi3Z7fb9esIkNW-24" target="d3xCL4Mi3Z7fb9esIkNW-25">
          <mxGeometry relative="1" as="geometry" />
        </mxCell>
        <mxCell id="d3xCL4Mi3Z7fb9esIkNW-27" value="기회가 0보다&lt;br&gt;클 경우" style="edgeStyle=orthogonalEdgeStyle;rounded=0;orthogonalLoop=1;jettySize=auto;html=1;exitX=0;exitY=0.5;exitDx=0;exitDy=0;entryX=1;entryY=0.5;entryDx=0;entryDy=0;" edge="1" parent="WIyWlLk6GJQsqaUBKTNV-1" source="d3xCL4Mi3Z7fb9esIkNW-24" target="d3xCL4Mi3Z7fb9esIkNW-8">
          <mxGeometry relative="1" as="geometry" />
        </mxCell>
        <mxCell id="d3xCL4Mi3Z7fb9esIkNW-24" value="3스트라이크가 아닌 경우" style="whiteSpace=wrap;html=1;" vertex="1" parent="WIyWlLk6GJQsqaUBKTNV-1">
          <mxGeometry x="391" y="-1150" width="120" height="60" as="geometry" />
        </mxCell>
        <mxCell id="d3xCL4Mi3Z7fb9esIkNW-25" value="기회 0번이면 게임 오버" style="whiteSpace=wrap;html=1;" vertex="1" parent="WIyWlLk6GJQsqaUBKTNV-1">
          <mxGeometry x="391" y="-1010" width="120" height="60" as="geometry" />
        </mxCell>
      </root>
    </mxGraphModel>
  </diagram>
</mxfile>
